<svg xmlns="http://www.w3.org/2000/svg" version="1.1" xmlns:xlink="http://www.w3.org/1999/xlink" xmlns:svgjs="http://svgjs.dev/svgjs" width="1000" height="60" viewBox="0 0 1000 60"><g transform="matrix(1,0,0,1,-0.6060606060606233,0.23639550047644065)"><svg viewBox="0 0 396 24" data-background-color="#ffffff" preserveAspectRatio="xMidYMid meet" height="60" width="1000" xmlns="http://www.w3.org/2000/svg" xmlns:xlink="http://www.w3.org/1999/xlink"><g id="tight-bounds" transform="matrix(1,0,0,1,0.2400000000000091,-0.09455766681395517)"><svg viewBox="0 0 395.52 24.18911533362792" height="24.18911533362792" width="395.52"><g><svg viewBox="0 0 395.52 24.18911533362792" height="24.18911533362792" width="395.52"><g><svg viewBox="0 0 395.52 24.18911533362792" height="24.18911533362792" width="395.52"><g id="textblocktransform"><svg viewBox="0 0 395.52 24.18911533362792" height="24.18911533362792" width="395.52" id="textblock"><g><svg viewBox="0 0 395.52 24.18911533362792" height="24.18911533362792" width="395.52"><g transform="matrix(1,0,0,1,0,0)"><svg width="395.52" viewBox="3.0999999046325684 -34.29999923706055 565.7000122070312 34.599998474121094" height="24.18911533362792" data-palette-color="#e6b17e"><path d="M3.1 0L3.1-33.85Q3.55-33.85 4.9-33.88 6.25-33.9 7.9-33.9 9.55-33.9 11.1-33.93 12.65-33.95 13.5-33.95L13.5-33.95Q19.9-33.95 23.1-31.5 26.3-29.05 26.3-24.25L26.3-24.25Q26.3-21.05 24.75-18.98 23.2-16.9 20.55-15.75L20.55-15.75Q22.05-14.9 23.2-13.5 24.35-12.1 25.4-10.13 26.45-8.15 27.53-5.6 28.6-3.05 29.9 0L29.9 0 21.05 0Q19.45-3.5 18.35-6.18 17.25-8.85 16.3-10.68 15.35-12.5 14.43-13.43 13.5-14.35 12.2-14.35L12.2-14.35 11.35-14.35 11.35 0 3.1 0ZM11.35-28.55L11.35-19.5 13.45-19.5Q15.2-19.5 16.43-20.58 17.65-21.65 17.65-23.95L17.65-23.95Q17.65-24.9 17.43-25.73 17.2-26.55 16.7-27.18 16.2-27.8 15.33-28.18 14.45-28.55 13.2-28.55L13.2-28.55 11.35-28.55ZM33.05 0L33.05-33.85 54.6-33.85 54.6-27.8 41.3-27.8 41.3-20.55 52.35-20.55 51.4-14.6 41.3-14.6 41.3-6.05 55.3-6.05 55.3 0 33.05 0ZM69.5-34.3L69.5-34.3Q71.3-34.3 72.97-34 74.65-33.7 76.1-33.25 77.55-32.8 78.72-32.23 79.9-31.65 80.75-31.05L80.75-31.05 77.85-25.55Q77.25-25.85 76.4-26.33 75.55-26.8 74.57-27.25 73.6-27.7 72.57-28 71.55-28.3 70.6-28.3L70.6-28.3Q68.85-28.3 68-27.58 67.15-26.85 67.15-25.75L67.15-25.75Q67.2-24.9 67.55-24.25 67.9-23.6 68.6-22.98 69.3-22.35 70.4-21.75 71.5-21.15 73.1-20.5L73.1-20.5Q75.1-19.65 76.6-18.75 78.1-17.85 79.07-16.7 80.05-15.55 80.55-14.1 81.05-12.65 81.05-10.75L81.05-10.75Q81.05-8.45 80.22-6.43 79.4-4.4 77.85-2.9 76.3-1.4 74.1-0.55 71.9 0.3 69.15 0.3L69.15 0.3Q67.2 0.3 65.42-0.05 63.65-0.4 62.15-0.95 60.65-1.5 59.4-2.13 58.15-2.75 57.25-3.3L57.25-3.3 59.95-9.2Q60.3-8.95 61.25-8.38 62.2-7.8 63.4-7.23 64.6-6.65 65.85-6.2 67.1-5.75 68.1-5.75L68.1-5.75Q70.2-5.75 71.17-6.73 72.15-7.7 72.15-9.5L72.15-9.5Q72.15-11.3 70.92-12.23 69.7-13.15 67.45-14.05L67.45-14.05Q65.25-14.95 63.55-15.95 61.85-16.95 60.67-18.2 59.5-19.45 58.87-21 58.25-22.55 58.25-24.6L58.25-24.6Q58.25-26.85 59.17-28.63 60.1-30.4 61.65-31.68 63.2-32.95 65.22-33.63 67.25-34.3 69.5-34.3ZM82.54-33.85L107.69-33.85 106.64-27.8 98.84-27.8 98.84 0 90.59 0 90.59-27.8 82.54-27.8 82.54-33.85ZM104.74 0L117.59-33.85 124.94-33.85 137.34 0 128.99 0 126.49-8.15 115.54-8.15 112.94 0 104.74 0ZM117.44-14.25L124.64-14.25Q124.14-15.7 123.62-17.28 123.09-18.85 122.62-20.35 122.14-21.85 121.74-23.18 121.34-24.5 121.04-25.4L121.04-25.4Q120.74-24.45 120.34-23.13 119.94-21.8 119.47-20.3 118.99-18.8 118.47-17.25 117.94-15.7 117.44-14.25L117.44-14.25ZM138.84-33.85L147.04-33.85 147.04-13.7Q147.04-11.5 147.51-10.05 147.99-8.6 148.81-7.7 149.64-6.8 150.79-6.43 151.94-6.05 153.24-6.05L153.24-6.05Q155.94-6.05 157.36-7.98 158.79-9.9 158.79-13.7L158.79-13.7 158.79-33.85 167.04-33.85 167.04-13.25Q167.04-10.55 166.29-8.1 165.54-5.65 163.81-3.78 162.09-1.9 159.34-0.8 156.59 0.3 152.59 0.3L152.59 0.3Q148.74 0.3 146.11-0.83 143.49-1.95 141.89-3.83 140.29-5.7 139.56-8.15 138.84-10.6 138.84-13.25L138.84-13.25 138.84-33.85ZM172.74 0L172.74-33.85Q173.19-33.85 174.54-33.88 175.89-33.9 177.54-33.9 179.19-33.9 180.74-33.93 182.29-33.95 183.14-33.95L183.14-33.95Q189.54-33.95 192.74-31.5 195.94-29.05 195.94-24.25L195.94-24.25Q195.94-21.05 194.39-18.98 192.84-16.9 190.19-15.75L190.19-15.75Q191.69-14.9 192.84-13.5 193.99-12.1 195.04-10.13 196.09-8.15 197.16-5.6 198.24-3.05 199.54 0L199.54 0 190.69 0Q189.09-3.5 187.99-6.18 186.89-8.85 185.94-10.68 184.99-12.5 184.06-13.43 183.14-14.35 181.84-14.35L181.84-14.35 180.99-14.35 180.99 0 172.74 0ZM180.99-28.55L180.99-19.5 183.09-19.5Q184.84-19.5 186.06-20.58 187.29-21.65 187.29-23.95L187.29-23.95Q187.29-24.9 187.06-25.73 186.84-26.55 186.34-27.18 185.84-27.8 184.96-28.18 184.09-28.55 182.84-28.55L182.84-28.55 180.99-28.55ZM200.53 0L213.38-33.85 220.73-33.85 233.13 0 224.78 0 222.28-8.15 211.33-8.15 208.73 0 200.53 0ZM213.23-14.25L220.43-14.25Q219.93-15.7 219.41-17.28 218.88-18.85 218.41-20.35 217.93-21.85 217.53-23.18 217.13-24.5 216.83-25.4L216.83-25.4Q216.53-24.45 216.13-23.13 215.73-21.8 215.26-20.3 214.78-18.8 214.26-17.25 213.73-15.7 213.23-14.25L213.23-14.25ZM256.28-20.9L256.13-33.85 264.38-33.85 264.38 0 257.33 0 247.68-14.6Q247.38-15.05 246.86-15.9 246.33-16.75 245.76-17.68 245.18-18.6 244.66-19.48 244.13-20.35 243.78-20.9L243.78-20.9Q243.83-20.15 243.91-19.07 243.98-18 244.06-16.9 244.13-15.8 244.18-14.75 244.23-13.7 244.23-13L244.23-13 244.38 0 236.13 0 236.13-33.85 242.88-33.85 252.63-19.35Q253.08-18.65 253.63-17.78 254.18-16.9 254.76-16 255.33-15.1 255.83-14.28 256.33-13.45 256.68-12.85L256.68-12.85Q256.63-13.65 256.58-14.7 256.53-15.75 256.46-16.88 256.38-18 256.33-19.05 256.28-20.1 256.28-20.9L256.28-20.9ZM267.58-33.85L292.73-33.85 291.68-27.8 283.88-27.8 283.88 0 275.63 0 275.63-27.8 267.58-27.8 267.58-33.85ZM332.42-30.15L327.92-25.6Q326.52-27.3 325.22-27.88 323.92-28.45 322.62-28.45L322.62-28.45Q319.37-28.45 317.9-25.43 316.42-22.4 316.42-17.05L316.42-17.05Q316.42-14.5 316.75-12.38 317.07-10.25 317.87-8.75 318.67-7.25 320-6.4 321.32-5.55 323.32-5.55L323.32-5.55Q325.07-5.55 326.75-5.98 328.42-6.4 329.82-6.95L329.82-6.95 331.62-1.35Q330.07-0.7 327.72-0.2 325.37 0.3 322.32 0.3L322.32 0.3Q314.62 0.3 311.07-4.08 307.52-8.45 307.52-16.5L307.52-16.5Q307.52-20.4 308.45-23.65 309.37-26.9 311.25-29.28 313.12-31.65 315.95-32.98 318.77-34.3 322.62-34.3L322.62-34.3Q324.62-34.3 326.15-33.95 327.67-33.6 328.82-33.02 329.97-32.45 330.85-31.7 331.72-30.95 332.42-30.15L332.42-30.15ZM332.97 0L345.82-33.85 353.17-33.85 365.57 0 357.22 0 354.72-8.15 343.77-8.15 341.17 0 332.97 0ZM345.67-14.25L352.87-14.25Q352.37-15.7 351.85-17.28 351.32-18.85 350.85-20.35 350.37-21.85 349.97-23.18 349.57-24.5 349.27-25.4L349.27-25.4Q348.97-24.45 348.57-23.13 348.17-21.8 347.7-20.3 347.22-18.8 346.7-17.25 346.17-15.7 345.67-14.25L345.67-14.25ZM394.27-10.05L390.02 0 383.77 0 379.62-9.6Q379.47-10 379.04-11.08 378.62-12.15 378.09-13.53 377.57-14.9 377.02-16.35 376.47-17.8 376.02-19L376.02-19Q376.02-17.7 376.02-16 376.02-14.3 376.02-12.55 376.02-10.8 375.99-9.25 375.97-7.7 375.92-6.8L375.92-6.8 375.67 0 368.07 0 370.07-33.85 377.17-33.85 384.97-14.35Q385.32-13.45 385.89-11.83 386.47-10.2 387.02-8.3L387.02-8.3Q387.57-10.15 388.14-11.78 388.72-13.4 389.12-14.35L389.12-14.35 396.92-33.85 403.87-33.85 405.87 0 398.12 0 397.82-6.8Q397.77-7.75 397.74-9.3 397.72-10.85 397.72-12.58 397.72-14.3 397.74-16.03 397.77-17.75 397.77-19L397.77-19Q397.37-17.95 396.89-16.63 396.42-15.3 395.92-14.05 395.42-12.8 394.97-11.73 394.52-10.65 394.27-10.05L394.27-10.05ZM411.57 0L411.57-33.85Q411.92-33.85 413.24-33.88 414.57-33.9 416.17-33.9 417.77-33.9 419.37-33.93 420.97-33.95 421.97-33.95L421.97-33.95Q428.37-33.95 431.57-31.23 434.77-28.5 434.77-23.65L434.77-23.65Q434.77-18.3 431.17-15.63 427.57-12.95 421.32-12.95L421.32-12.95 419.82-12.95 419.82 0 411.57 0ZM419.82-28.4L419.82-18.4 421.92-18.4Q423.62-18.4 424.87-19.58 426.12-20.75 426.12-23.25L426.12-23.25Q426.12-25.35 425.09-26.9 424.07-28.45 421.67-28.5L421.67-28.5Q421.02-28.5 420.57-28.48 420.12-28.45 419.82-28.4L419.82-28.4ZM438.76 0L438.76-33.85 460.31-33.85 460.31-27.8 447.01-27.8 447.01-20.55 458.06-20.55 457.11-14.6 447.01-14.6 447.01-6.05 461.01-6.05 461.01 0 438.76 0ZM475.21-34.3L475.21-34.3Q477.01-34.3 478.69-34 480.36-33.7 481.81-33.25 483.26-32.8 484.44-32.23 485.61-31.65 486.46-31.05L486.46-31.05 483.56-25.55Q482.96-25.85 482.11-26.33 481.26-26.8 480.29-27.25 479.31-27.7 478.29-28 477.26-28.3 476.31-28.3L476.31-28.3Q474.56-28.3 473.71-27.58 472.86-26.85 472.86-25.75L472.86-25.75Q472.91-24.9 473.26-24.25 473.61-23.6 474.31-22.98 475.01-22.35 476.11-21.75 477.21-21.15 478.81-20.5L478.81-20.5Q480.81-19.65 482.31-18.75 483.81-17.85 484.79-16.7 485.76-15.55 486.26-14.1 486.76-12.65 486.76-10.75L486.76-10.75Q486.76-8.45 485.94-6.43 485.11-4.4 483.56-2.9 482.01-1.4 479.81-0.55 477.61 0.3 474.86 0.3L474.86 0.3Q472.91 0.3 471.13-0.05 469.36-0.4 467.86-0.95 466.36-1.5 465.11-2.13 463.86-2.75 462.96-3.3L462.96-3.3 465.66-9.2Q466.01-8.95 466.96-8.38 467.91-7.8 469.11-7.23 470.31-6.65 471.56-6.2 472.81-5.75 473.81-5.75L473.81-5.75Q475.91-5.75 476.88-6.73 477.86-7.7 477.86-9.5L477.86-9.5Q477.86-11.3 476.63-12.23 475.41-13.15 473.16-14.05L473.16-14.05Q470.96-14.95 469.26-15.95 467.56-16.95 466.38-18.2 465.21-19.45 464.59-21 463.96-22.55 463.96-24.6L463.96-24.6Q463.96-26.85 464.88-28.63 465.81-30.4 467.36-31.68 468.91-32.95 470.94-33.63 472.96-34.3 475.21-34.3ZM488.26-33.85L513.41-33.85 512.36-27.8 504.56-27.8 504.56 0 496.31 0 496.31-27.8 488.26-27.8 488.26-33.85ZM516.61 0L516.61-33.85Q517.05-33.85 518.4-33.88 519.75-33.9 521.4-33.9 523.05-33.9 524.61-33.93 526.15-33.95 527-33.95L527-33.95Q533.4-33.95 536.61-31.5 539.8-29.05 539.8-24.25L539.8-24.25Q539.8-21.05 538.25-18.98 536.71-16.9 534.05-15.75L534.05-15.75Q535.55-14.9 536.71-13.5 537.86-12.1 538.9-10.13 539.96-8.15 541.03-5.6 542.11-3.05 543.4 0L543.4 0 534.55 0Q532.96-3.5 531.86-6.18 530.75-8.85 529.8-10.68 528.86-12.5 527.93-13.43 527-14.35 525.71-14.35L525.71-14.35 524.86-14.35 524.86 0 516.61 0ZM524.86-28.55L524.86-19.5 526.96-19.5Q528.71-19.5 529.93-20.58 531.15-21.65 531.15-23.95L531.15-23.95Q531.15-24.9 530.93-25.73 530.71-26.55 530.21-27.18 529.71-27.8 528.83-28.18 527.96-28.55 526.71-28.55L526.71-28.55 524.86-28.55ZM546.55 0L546.55-33.85 568.1-33.85 568.1-27.8 554.8-27.8 554.8-20.55 565.85-20.55 564.9-14.6 554.8-14.6 554.8-6.05 568.8-6.05 568.8 0 546.55 0Z" opacity="1" transform="matrix(1,0,0,1,0,0)" fill="#e6b17e" class="undefined-text-0" data-fill-palette-color="primary" id="text-0"></path></svg></g></svg></g></svg></g></svg></g></svg></g><defs></defs></svg><rect width="395.52" height="24.18911533362792" fill="none" stroke="none" visibility="hidden"></rect></g></svg></g></svg>